#!OML:ASF F:\VICON\USERDATA\INSTALL\Justin_Nancy\Justin_Nancy.ASF
:FULLY-SPECIFIED
:DEGREES
142
root 0.425453 16.7833 17.6046 -6.84284 4.80127 1.99143
lowerback 9.94646 -1.73652 -4.35978
upperback -0.094339 -2.71109 1.90822
thorax -5.38718 -1.19476 4.84996
lowerneck -20.1892 -3.77799 -10.5614
upperneck 18.0799 -3.62358 7.19671
head 9.35662 -1.62957 3.73563
rclavicle 1.14301e-015 4.77083e-015
rhumerus -46.5773 -18.8346 -68.2581
rradius 23.2976
rwrist 15.0743
rhand -12.2159 13.6038
rfingers 7.12502
rthumb 13.849 -15.9152
lclavicle 1.14301e-015 4.77083e-015
lhumerus -23.7094 -11.991 83.7556
lradius 51.9609
lwrist -1.67187
lhand -16.0144 17.9094
lfingers 7.12502
lthumb 10.1863 47.6428
rfemur -25.1453 1.94737 18.9889
rtibia 32.0705
rfoot 4.5602 -4.21924
rtoes 4.79163
lfemur 4.68349 -3.72127 -20.2362
ltibia 45.6078
lfoot -14.478 -6.06301
ltoes -23.1195
143
root 0.407866 16.7853 17.7714 -7.10944 4.84792 1.75768
lowerback 10.2311 -1.77581 -4.11301
upperback -0.0330377 -2.73893 2.00089
thorax -5.48608 -1.21174 4.82421
lowerneck -20.0638 -3.67337 -10.4556
upperneck 18.0101 -3.46778 6.96005
head 9.28814 -1.57719 3.65541
rclavicle 7.30534e-015 -1.59028e-014
rhumerus -46.6329 -19.7622 -67.2105
rradius 22.6935
rwrist 16.2925
rhand -11.881 13.5946
rfingers 7.12502
rthumb 14.1717 -15.902
lclavicle 7.30534e-015 -1.59028e-014
lhumerus -23.7709 -11.3166 83.9345
lradius 50.975
lwrist -1.73098
lhand -18.7119 16.3607
lfingers 7.12502
lthumb 7.58326 46.2048
rfemur -24.8474 1.85838 19.4108
rtibia 33.023
rfoot 3.62794 -4.84767
rtoes 4.0248
lfemur 4.22219 -3.8951 -19.9507
ltibia 47.5545
lfoot -12.6062 -6.45746
ltoes -22.9664
144
root 0.380498 16.7973 17.9375 -7.25201 4.97032 1.64719
lowerback 10.3762 -1.80098 -4.12976
upperback 0.0321486 -2.77391 2.08939
thorax -5.48981 -1.2285 4.9375
lowerneck -19.8031 -3.62484 -10.3487
upperneck 17.7657 -3.40932 6.77107
head 9.14587 -1.56477 3.57563
rclavicle 3.46879e-014 -8.74653e-015
rhumerus -46.6084 -20.6567 -66.2615
rradius 22.1697
rwrist 17.4699
rhand -11.6059 12.8916
rfingers 7.12502
rthumb 14.4368 -16.5863
lclavicle 3.46879e-014 -8.74653e-015
lhumerus -23.8733 -10.0235 83.9184
lradius 50.1995
lwrist -3.38953
lhand -18.4031 16.8575
lfingers 7.12502
lthumb 7.88125 46.6906
rfemur -24.4216 1.50025 19.7541
rtibia 33.5966
rfoot 2.8113 -4.8857
rtoes 2.59542
lfemur 3.52631 -4.00394 -19.7041
ltibia 49.4352
lfoot -10.3634 -7.07972
ltoes -20.978
145
root 0.342774 16.8221 18.0987 -7.28244 4.97652 1.21646
lowerback 10.3017 -1.8393 -3.96918
upperback 0.166507 -2.78873 2.32684
thorax -5.29999 -1.24613 5.09134
lowerneck -20.0411 -3.62053 -10.3812
upperneck 17.9034 -3.36796 6.7508
head 9.23238 -1.54762 3.58137
rclavicle -1.50082e-014 -4.77083e-015
rhumerus -46.3799 -21.9968 -65.1225
rradius 21.667
rwrist 18.8376
rhand -11.2553 12.4326
rfingers 7.12502
rthumb 14.7746 -17.0208
lclavicle -1.50082e-014 -4.77083e-015
lhumerus -23.91 -8.48542 83.9341
lradius 49.4082
lwrist -4.81012
lhand -17.8261 17.771
lfingers 7.12502
lthumb 8.43818 47.5824
rfemur -24.0795 1.24505 20.5203
rtibia 34.0375
rfoot 2.11553 -4.64138
rtoes 2.23327
lfemur 2.52281 -3.95721 -18.992
ltibia 51.2904
lfoot -8.22813 -7.77702
ltoes -18.4346
146
root 0.303645 16.8456 18.2422 -7.20159 5.05312 0.542544
lowerback 10.3119 -1.91157 -3.5839
upperback 0.193984 -2.82228 2.63247
thorax -5.27568 -1.27027 5.2007
lowerneck -20.3966 -3.63692 -10.3933
upperneck 18.3135 -3.34793 6.68458
head 9.43606 -1.54587 3.5689
rclavicle 2.44257e-014 4.77083e-015
rhumerus -46.3377 -23.405 -63.9609
rradius 21.4638
rwrist 19.7354
rhand -11.2519 12.0569
rfingers 7.12502
rthumb 14.7778 -17.3963
lclavicle 2.44257e-014 4.77083e-015
lhumerus -24.056 -7.07394 84.1536
lradius 48.5208
lwrist -4.84092
lhand -18.2045 18.6398
lfingers 7.12502
lthumb 8.07301 48.4656
rfemur -23.836 1.10677 21.5054
rtibia 34.2514
rfoot 1.69789 -4.93119
rtoes 2.4177
lfemur 1.13361 -3.92184 -17.9902
ltibia 53.2634
lfoot -6.27101 -8.62599
ltoes -16.3435
147
root 0.270977 16.8616 18.3802 -7.13875 5.40281 0.241831
lowerback 10.4907 -2.0423 -3.55221
upperback 0.0449803 -2.98571 2.83987
thorax -5.50549 -1.339 5.44165
lowerneck -20.1447 -3.56547 -10.4015
upperneck 18.4902 -3.24791 6.54305
head 9.44121 -1.52239 3.53784
rclavicle -2.00027e-014 1.43125e-014
rhumerus -46.5324 -24.4713 -62.8289
rradius 21.3376
rwrist 19.9931
rhand -11.3277 11.1587
rfingers 7.12502
rthumb 14.7048 -18.2998
lclavicle -2.00027e-014 1.43125e-014
lhumerus -24.5919 -5.65606 84.512
lradius 47.5085
lwrist -4.05537
lhand -19.0156 19.5103
lfingers 7.12502
lthumb 7.29007 49.3647
rfemur -23.4019 1.00672 21.9542
rtibia 34.2935
rfoot 1.19745 -5.4984
rtoes 2.58092
lfemur -0.244821 -4.18377 -17.5464
ltibia 55.258
lfoot -4.40405 -9.2691
ltoes -14.1473
148
root 0.241741 16.8815 18.526 -7.17961 5.78917 -0.208055
lowerback 10.4342 -2.18644 -3.27012
upperback 0.0610165 -3.13274 3.00486
thorax -5.44514 -1.41946 5.47299
lowerneck -19.8188 -3.49673 -10.2919
upperneck 18.4658 -3.18712 6.39551
head 9.36405 -1.5076 3.47634
rclavicle 7.57867e-015 1.59028e-014
rhumerus -46.5407 -25.6755 -61.8858
rradius 21.2121
rwrist 20.1617
rhand -11.1761 9.9131
rfingers 7.12502
rthumb 14.8508 -19.5347
lclavicle 7.57867e-015 1.59028e-014
lhumerus -24.8495 -4.41822 84.8169
lradius 46.2043
lwrist -2.68267
lhand -20.4186 20.4459
lfingers 7.12502
lthumb 5.93569 50.3428
rfemur -22.7272 1.26399 22.4951
rtibia 34.2315
rfoot 0.592468 -6.23938
rtoes 3.02006
lfemur -1.52142 -4.4771 -16.9799
ltibia 57.1932
lfoot -3.23202 -9.51596
ltoes -13.135
149
root 0.211499 16.9044 18.6688 -7.18485 6.04952 -0.789282
lowerback 10.1146 -2.30559 -2.87997
upperback 0.269097 -3.23071 3.1831
thorax -5.04595 -1.49218 5.42501
lowerneck -19.7212 -3.45871 -10.0275
upperneck 18.366 -3.1683 6.1634
head 9.30139 -1.5059 3.3519
rclavicle 4.36084e-014 3.97569e-015
rhumerus -46.3198 -26.8699 -61.368
rradius 21.4105
rwrist 20.2184
rhand -11.1923 9.03033
rfingers 7.12502
rthumb 14.8352 -20.4186
lclavicle 4.36084e-014 3.97569e-015
lhumerus -24.6531 -2.88575 84.88
lradius 44.8459
lwrist -2.10299
lhand -20.9483 21.4632
lfingers 7.12502
lthumb 5.4243 51.3738
rfemur -22.1296 1.81068 23.2029
rtibia 34.1521
rfoot 0.314927 -7.18374
rtoes 3.00969
lfemur -2.87329 -4.68046 -16.3131
ltibia 59.0188
lfoot -3.336 -8.82999
ltoes -13.6568
150
root 0.19002 16.9335 18.8017 -7.11754 6.44485 -0.825048
lowerback 9.99863 -2.38541 -2.99861
upperback 0.368515 -3.34622 3.25247
thorax -4.85252 -1.55385 5.56939
lowerneck -19.6271 -3.46451 -9.94359
upperneck 18.3536 -3.19505 6.09296
head 9.27993 -1.52144 3.30952
rclavicle 5.89148e-014 -4.6118e-014
rhumerus -46.1926 -27.868 -60.847
rradius 21.6886
rwrist 19.7828
rhand -11.7999 8.6252
rfingers 7.12502
rthumb 14.2498 -20.8659
lclavicle 5.89148e-014 -4.6118e-014
lhumerus -24.5108 -1.3311 85.0076
lradius 43.5197
lwrist -1.8479
lhand -20.7935 22.5974
lfingers 7.12502
lthumb 5.5737 52.5041
rfemur -21.5738 1.89161 23.2919
rtibia 34.0004
rfoot 0.130097 -7.83387
rtoes 2.48484
lfemur -4.17359 -5.02719 -16.4102
ltibia 60.6266
lfoot -3.8467 -6.96807
ltoes -14.1755
151
root 0.178544 16.9673 18.9243 -7.03067 6.87479 -0.747912
lowerback 10.0717 -2.46584 -3.08657
upperback 0.356655 -3.4629 3.28376
thorax -4.88531 -1.60807 5.67284
lowerneck -19.6107 -3.48061 -10.0389
upperneck 18.5854 -3.22347 6.20358
head 9.36388 -1.53247 3.36403
rclavicle -3.8266e-014 4.29375e-014
rhumerus -46.0821 -28.6061 -60.3889
rradius 21.9508
rwrist 19.019
rhand -12.3113 8.72984
rfingers 7.12502
rthumb 13.757 -20.7954
lclavicle -3.8266e-014 4.29375e-014
lhumerus -24.6146 0.0973529 85.2263
lradius 42.1662
lwrist -0.778764
lhand -21.7052 22.5292
lfingers 7.12502
lthumb 4.69344 52.4572
rfemur -20.9694 1.44538 23.2372
rtibia 33.7216
rfoot -0.186259 -7.84827
rtoes 2.14789
lfemur -5.32556 -5.4001 -16.7593
ltibia 62.0373
lfoot -4.60474 -4.61363
ltoes -16.3499
